<?xml version="1.0" encoding="utf-8"?>
<!-- Generator: Adobe Illustrator 26.4.1, SVG Export Plug-In . SVG Version: 6.00 Build 0)  -->
<svg version="1.1" id="Capa_1" xmlns="http://www.w3.org/2000/svg" xmlns:xlink="http://www.w3.org/1999/xlink" x="0px" y="0px"
	 viewBox="0 0 1280 720" style="enable-background:new 0 0 1280 720;" xml:space="preserve">
<style type="text/css">
	.st0{clip-path:url(#SVGID_00000007396712906198413070000000647529331350267785_);}
	.st1{fill-rule:evenodd;clip-rule:evenodd;fill:#1F2021;}
	.st2{clip-path:url(#SVGID_00000077314463031073092180000010028155577202803097_);}
	.st3{fill-rule:evenodd;clip-rule:evenodd;fill:#858889;}
	.st4{fill:#020203;}
</style>
<g>
	<defs>
		<rect id="SVGID_1_" x="226.14" y="221.81" width="182.52" height="261.44"/>
	</defs>
	<clipPath id="SVGID_00000085955823809802275650000016128220531696682881_">
		<use xlink:href="#SVGID_1_"  style="overflow:visible;"/>
	</clipPath>
	<g style="clip-path:url(#SVGID_00000085955823809802275650000016128220531696682881_);">
		<path class="st1" d="M357.78,257.51l48.4-27.91l-13.55-7.8l-16.48,9.51l-32.02,18.47L357.78,257.51z M226.21,333.42l59.63-34.4
			v-15.61l-59.63,34.39V333.42z M298.76,321.14 M274.58,350.7l-49.02,30.84l0.65,58.38l17.74,10.26l30.62,17.66l24.18,13.97
			l48.37-27.91l0.04-188.57l-48.4-27.88v83.69c0,8.99,0,15.61,0,15.61v129.42l-24.18-13.94V350.7 M298.76,336.75"/>
	</g>
</g>
<g>
	<defs>
		<rect id="SVGID_00000134211799460711065320000000700991357759080596_" x="311.29" y="235.11" width="181.05" height="262.32"/>
	</defs>
	<clipPath id="SVGID_00000167373658909613843430000005769828683440658340_">
		<use xlink:href="#SVGID_00000134211799460711065320000000700991357759080596_"  style="overflow:visible;"/>
	</clipPath>
	<g style="clip-path:url(#SVGID_00000167373658909613843430000005769828683440658340_);">
		<path class="st3" d="M360.67,461.7l-48.37,27.91l13.55,7.8l16.48-9.51l31.99-18.47L360.67,461.7z M443.9,368.51V266.98
			l-24.21-13.93v129.42L443.9,368.51z M419.69,398.07v83.74l-48.37-27.91V265.31l48.37-27.88l24.21,13.94l30.6,17.66l17.77,10.27
			v76.92C468.08,370.19,443.9,384.14,419.69,398.07z M492.26,385.8l-59.62,34.39v15.64l59.62-34.43V385.8z"/>
	</g>
</g>
<g>
	<g transform="translate(161.781248, 187.761921)">
		<g>
			<path class="st4" d="M437.42,73.56v62.33c0,8.64-2.5,15.36-7.51,20.17c-4.98,4.79-11.67,7.17-20.07,7.17
				c-8.48,0-15.34-2.45-20.56-7.36c-5.2-4.91-7.8-11.78-7.8-20.61h17.82c0.1,3.83,1.01,6.81,2.75,8.93c1.73,2.1,4.25,3.14,7.56,3.14
				c3.2,0,5.66-1.01,7.36-3.04c1.69-2.02,2.55-4.82,2.55-8.39V73.56H437.42z"/>
		</g>
	</g>
</g>
<g>
	<g transform="translate(184.853288, 187.761921)">
		<g>
			<path class="st4" d="M452.9,73.56v88.78h-17.82V73.56H452.9z"/>
		</g>
	</g>
</g>
<g>
	<g transform="translate(196.105959, 187.761921)">
		<g>
			<path class="st4" d="M504.97,162.34l-19.58-34.6h-8.39v34.6h-17.82V73.56h33.32c6.83,0,12.67,1.21,17.52,3.63
				c4.83,2.43,8.47,5.69,10.9,9.82c2.42,4.1,3.63,8.69,3.63,13.79c0,5.86-1.71,11.14-5.1,15.85c-3.41,4.69-8.44,7.93-15.12,9.72
				l21.2,35.97H504.97z M476.99,114.39h14.87c4.81,0,8.39-1.15,10.75-3.48c2.38-2.32,3.58-5.56,3.58-9.72c0-4.09-1.2-7.24-3.58-9.47
				c-2.36-2.26-5.94-3.39-10.75-3.39h-14.87V114.39z"/>
		</g>
	</g>
</g>
<g>
	<g transform="translate(222.051878, 187.761921)">
		<g>
			<path class="st4" d="M532.54,87.93v22.28h29.84v14.09h-29.84v23.56h33.67v14.48h-51.48V73.46h51.48v14.48H532.54z"/>
		</g>
	</g>
</g>
<g>
	<g transform="translate(243.585778, 187.761921)">
		<g>
			<path class="st4" d="M634.45,73.56v88.78h-17.82v-37.79h-37.99v37.79h-17.82V73.56h17.82v36.51h37.99V73.56H634.45z"/>
		</g>
	</g>
</g>
<g>
	<g transform="translate(161.781248, 217.448019)">
		<g>
			<path class="st4" d="M418.67,191.05c0,2.69-0.64,5.23-1.91,7.61c-1.28,2.36-3.28,4.26-5.99,5.69c-2.72,1.45-6.16,2.16-10.31,2.16
				h-8.44v19.39h-10.11v-50.45h18.55c3.93,0,7.24,0.67,9.96,2.01c2.75,1.35,4.81,3.21,6.18,5.59
				C417.98,185.4,418.67,188.08,418.67,191.05z M400.02,198.36c2.81,0,4.88-0.64,6.23-1.91c1.34-1.28,2.01-3.07,2.01-5.4
				c0-4.91-2.75-7.36-8.25-7.36h-8v14.67H400.02z"/>
		</g>
	</g>
</g>
<g>
	<g transform="translate(175.774292, 217.448019)">
		<g>
			<path class="st4" d="M437.88,225.89l-11.14-19.68h-4.76v19.68h-10.11v-50.45h18.94c3.89,0,7.21,0.69,9.96,2.06
				c2.75,1.37,4.81,3.24,6.18,5.59c1.37,2.33,2.06,4.93,2.06,7.8c0,3.34-0.97,6.36-2.9,9.03c-1.94,2.65-4.8,4.49-8.59,5.5
				l12.07,20.47H437.88z M421.98,198.66h8.44c2.75,0,4.79-0.65,6.13-1.96c1.37-1.34,2.06-3.2,2.06-5.59c0-2.28-0.69-4.07-2.06-5.35
				c-1.35-1.28-3.39-1.91-6.13-1.91h-8.44V198.66z"/>
		</g>
	</g>
</g>
<g>
	<g transform="translate(190.526813, 217.448019)">
		<g>
			<path class="st4" d="M466.87,226.38c-4.71,0-9.05-1.09-13.01-3.29c-3.96-2.22-7.1-5.3-9.42-9.23c-2.29-3.93-3.44-8.37-3.44-13.35
				c0-4.91,1.14-9.32,3.44-13.25c2.32-3.93,5.46-6.99,9.42-9.23c3.95-2.22,8.29-3.34,13.01-3.34c4.77,0,9.13,1.12,13.05,3.34
				c3.93,2.23,7.03,5.3,9.32,9.23c2.28,3.93,3.44,8.34,3.44,13.25c0,4.98-1.15,9.42-3.44,13.35c-2.29,3.93-5.42,7.01-9.37,9.23
				C475.91,225.29,471.58,226.38,466.87,226.38z M466.87,217.35c3.04,0,5.71-0.69,8-2.06c2.32-1.37,4.13-3.34,5.45-5.89
				c1.3-2.55,1.96-5.51,1.96-8.88c0-3.36-0.66-6.31-1.96-8.83c-1.31-2.55-3.13-4.49-5.45-5.84c-2.29-1.34-4.96-2.01-8-2.01
				c-3.04,0-5.74,0.67-8.1,2.01c-2.33,1.35-4.15,3.29-5.45,5.84c-1.28,2.53-1.91,5.47-1.91,8.83c0,3.37,0.64,6.33,1.91,8.88
				c1.3,2.55,3.12,4.52,5.45,5.89C461.12,216.67,463.82,217.35,466.87,217.35z"/>
		</g>
	</g>
</g>
<g>
	<g transform="translate(208.593477, 217.448019)">
		<g>
			<path class="st4" d="M499.75,175.44c5.3,0,9.96,1.06,13.99,3.14c4.02,2.06,7.13,5.01,9.32,8.83c2.18,3.83,3.29,8.27,3.29,13.3
				c0,5.08-1.1,9.51-3.29,13.3c-2.2,3.77-5.3,6.7-9.32,8.78c-4.02,2.06-8.69,3.09-13.99,3.09h-17.62v-50.45H499.75z M499.41,217.3
				c5.3,0,9.39-1.44,12.27-4.32c2.87-2.91,4.32-6.99,4.32-12.27c0-5.23-1.45-9.32-4.32-12.27c-2.88-2.97-6.97-4.47-12.27-4.47h-7.17
				v33.32H499.41z"/>
		</g>
	</g>
</g>
<g>
	<g transform="translate(225.09513, 217.448019)">
		<g>
			<path class="st4" d="M527.43,175.44v31.21c0,3.44,0.88,6.06,2.65,7.85c1.79,1.8,4.32,2.7,7.56,2.7c3.26,0,5.79-0.9,7.56-2.7
				c1.79-1.79,2.7-4.42,2.7-7.85v-31.21h10.16v31.16c0,4.29-0.93,7.93-2.8,10.9c-1.84,2.94-4.31,5.18-7.41,6.67
				c-3.12,1.47-6.56,2.21-10.36,2.21c-3.77,0-7.19-0.74-10.26-2.21c-3.04-1.5-5.47-3.73-7.26-6.67c-1.77-2.97-2.65-6.6-2.65-10.9
				v-31.16H527.43z"/>
		</g>
	</g>
</g>
<g>
	<g transform="translate(241.136494, 217.448019)">
		<g>
			<path class="st4" d="M549.36,200.57c0-4.93,1.1-9.37,3.34-13.3c2.26-3.93,5.31-6.98,9.18-9.18c3.89-2.18,8.24-3.29,13.05-3.29
				c5.62,0,10.56,1.45,14.82,4.32c4.25,2.88,7.21,6.87,8.88,11.97H587c-1.15-2.38-2.79-4.18-4.91-5.4c-2.1-1.2-4.5-1.82-7.21-1.82
				c-2.94,0-5.57,0.69-7.85,2.06c-2.29,1.37-4.07,3.32-5.35,5.84c-1.28,2.49-1.91,5.42-1.91,8.78c0,3.34,0.64,6.28,1.91,8.83
				c1.28,2.53,3.06,4.47,5.35,5.84c2.28,1.37,4.91,2.06,7.85,2.06c2.71,0,5.12-0.6,7.21-1.82c2.12-1.24,3.75-3.07,4.91-5.5h11.63
				c-1.67,5.18-4.61,9.2-8.83,12.07c-4.22,2.85-9.18,4.27-14.87,4.27c-4.81,0-9.17-1.09-13.05-3.29c-3.86-2.18-6.92-5.23-9.18-9.13
				C550.46,209.99,549.36,205.55,549.36,200.57z"/>
		</g>
	</g>
</g>
<g>
	<g transform="translate(258.811909, 217.448019)">
		<g>
			<path class="st4" d="M623.96,175.44v8.15h-13.45v42.3H600.4v-42.3h-13.45v-8.15H623.96z"/>
		</g>
	</g>
</g>
<g>
	<g transform="translate(272.091479, 217.448019)">
		<g>
			<path class="st4" d="M628.19,175.44v50.45h-10.11v-50.45H628.19z"/>
		</g>
	</g>
</g>
<g>
	<g transform="translate(278.489615, 217.448019)">
		<g>
			<path class="st4" d="M655.19,226.38c-4.71,0-9.05-1.09-13.01-3.29c-3.96-2.22-7.1-5.3-9.42-9.23c-2.29-3.93-3.44-8.37-3.44-13.35
				c0-4.91,1.14-9.32,3.44-13.25c2.32-3.93,5.46-6.99,9.42-9.23c3.95-2.22,8.29-3.34,13.01-3.34c4.77,0,9.13,1.12,13.05,3.34
				c3.93,2.23,7.03,5.3,9.32,9.23c2.28,3.93,3.44,8.34,3.44,13.25c0,4.98-1.15,9.42-3.44,13.35c-2.29,3.93-5.42,7.01-9.37,9.23
				C664.23,225.29,659.9,226.38,655.19,226.38z M655.19,217.35c3.04,0,5.71-0.69,8-2.06c2.32-1.37,4.13-3.34,5.45-5.89
				c1.3-2.55,1.96-5.51,1.96-8.88c0-3.36-0.66-6.31-1.96-8.83c-1.31-2.55-3.13-4.49-5.45-5.84c-2.29-1.34-4.96-2.01-8-2.01
				c-3.04,0-5.74,0.67-8.1,2.01c-2.33,1.35-4.15,3.29-5.45,5.84c-1.28,2.53-1.91,5.47-1.91,8.83c0,3.37,0.64,6.33,1.91,8.88
				c1.3,2.55,3.12,4.52,5.45,5.89C649.45,216.67,652.15,217.35,655.19,217.35z"/>
		</g>
	</g>
</g>
<g>
	<g transform="translate(296.556279, 217.448019)">
		<g>
			<path class="st4" d="M713.6,225.89h-10.11l-22.92-34.65v34.65h-10.11v-50.55h10.11l22.92,34.7v-34.7h10.11V225.89z"/>
		</g>
	</g>
</g>
<g>
	<g transform="translate(313.472204, 217.448019)">
		<g>
			<path class="st4" d="M724.1,226.38c-3.53,0-6.71-0.59-9.52-1.77c-2.82-1.2-5.04-2.94-6.67-5.2c-1.64-2.28-2.49-4.97-2.55-8.05
				h10.85c0.12,2.06,0.86,3.71,2.21,4.91c1.34,1.21,3.15,1.82,5.45,1.82c2.36,0,4.2-0.55,5.55-1.67c1.37-1.14,2.06-2.63,2.06-4.47
				c0-1.5-0.47-2.72-1.37-3.68c-0.92-0.98-2.06-1.74-3.44-2.31c-1.37-0.55-3.28-1.15-5.69-1.82c-3.28-0.98-5.94-1.93-8-2.85
				c-2.04-0.94-3.78-2.37-5.25-4.27c-1.47-1.93-2.21-4.48-2.21-7.66c0-2.97,0.74-5.57,2.21-7.8c1.5-2.22,3.59-3.93,6.28-5.1
				c2.71-1.18,5.8-1.77,9.28-1.77c5.23,0,9.47,1.28,12.71,3.83c3.24,2.53,5.03,6.04,5.4,10.55h-11.14c-0.1-1.73-0.83-3.15-2.21-4.27
				c-1.37-1.14-3.19-1.72-5.45-1.72c-2,0-3.58,0.52-4.76,1.52c-1.18,1.02-1.77,2.49-1.77,4.42c0,1.35,0.44,2.48,1.33,3.39
				c0.91,0.88,2.02,1.61,3.34,2.16c1.34,0.53,3.2,1.15,5.59,1.86c3.26,0.98,5.94,1.96,8,2.94c2.09,0.96,3.88,2.39,5.35,4.32
				c1.5,1.94,2.26,4.45,2.26,7.56c0,2.72-0.71,5.24-2.11,7.56c-1.37,2.29-3.42,4.12-6.13,5.5
				C730.98,225.7,727.79,226.38,724.1,226.38z"/>
		</g>
	</g>
</g>
</svg>
